<?xml version="1.0" standalone="no"?>
<!DOCTYPE svg PUBLIC "-//W3C//DTD SVG 20010904//EN"
 "http://www.w3.org/TR/2001/REC-SVG-20010904/DTD/svg10.dtd">
<svg version="1.0" xmlns="http://www.w3.org/2000/svg"
 width="823.000000pt" height="823.000000pt" viewBox="0 0 823.000000 823.000000"
 preserveAspectRatio="xMidYMid meet">
<metadata>
Created by potrace 1.11, written by Peter Selinger 2001-2013
</metadata>
<g transform="translate(0.000000,823.000000) scale(0.100000,-0.100000)"
fill="#000000" stroke="none">
<path d="M4160 7443 c-63 -98 -128 -198 -145 -223 -18 -25 -35 -52 -38 -60 -4
-8 -33 -54 -64 -102 -57 -86 -388 -600 -469 -728 -23 -36 -50 -75 -60 -86 -11
-12 -20 -26 -21 -32 -4 -18 -284 -447 -294 -450 -5 -2 -9 -9 -9 -16 0 -7 -19
-41 -42 -77 -43 -67 -100 -156 -176 -274 -25 -38 -66 -101 -91 -139 -59 -89
-52 -77 -154 -238 -80 -126 -138 -218 -236 -368 -20 -30 -39 -56 -43 -58 -5
-2 -8 -8 -8 -13 0 -10 -173 -282 -434 -681 -42 -65 -76 -122 -76 -127 0 -5 -4
-11 -8 -13 -4 -1 -59 -84 -122 -183 -63 -99 -117 -182 -120 -185 -3 -3 -9 -13
-15 -22 -13 -21 -197 -310 -290 -453 -39 -60 -86 -134 -105 -162 -18 -29 -37
-53 -42 -53 -4 0 -8 -7 -8 -16 0 -8 -17 -41 -39 -72 -21 -31 -109 -167 -195
-302 -87 -135 -162 -246 -167 -248 -5 -2 -9 -9 -9 -15 0 -7 -42 -76 -93 -154
-50 -79 -121 -188 -157 -244 -36 -56 -70 -107 -76 -113 -6 -6 -24 -34 -40 -63
-27 -48 -78 -127 -239 -377 -36 -54 -62 -102 -60 -107 3 -4 31 -8 63 -9 31 0
89 -2 127 -4 39 -2 135 -7 215 -11 80 -3 177 -8 216 -10 40 -3 125 -7 190 -10
66 -3 162 -8 214 -10 52 -3 149 -7 215 -10 66 -3 158 -8 205 -10 47 -3 132 -7
190 -10 58 -2 152 -7 210 -10 58 -3 150 -7 205 -10 55 -2 152 -7 215 -10 63
-4 160 -8 215 -10 55 -2 141 -6 190 -9 50 -3 146 -8 215 -11 127 -6 265 -12
400 -20 41 -2 136 -7 210 -10 74 -3 167 -8 205 -10 39 -2 131 -6 205 -10 191
-8 311 -14 415 -20 50 -2 144 -7 210 -10 66 -3 167 -8 225 -11 58 -3 152 -7
210 -9 58 -3 148 -7 200 -10 52 -3 145 -8 205 -10 61 -3 155 -7 210 -10 55 -3
152 -8 215 -10 63 -3 151 -7 195 -10 44 -3 136 -7 205 -10 69 -3 161 -7 205
-10 44 -2 139 -7 210 -10 72 -3 162 -7 200 -10 39 -3 129 -7 200 -10 72 -3
180 -8 240 -11 143 -7 230 -11 400 -19 77 -4 159 -8 183 -11 40 -4 42 -3 32
17 -9 15 -6 46 10 127 11 59 22 118 25 132 7 38 12 61 44 230 17 85 33 171 36
190 3 19 10 53 15 75 5 22 12 56 15 75 3 19 8 42 10 50 2 8 6 32 10 54 3 21 7
41 10 45 2 4 6 29 10 55 3 27 7 51 9 55 2 3 7 24 10 46 3 22 8 51 11 65 3 14
7 36 10 50 3 14 7 36 10 50 6 30 6 30 40 213 15 78 29 145 30 148 2 3 7 28 11
55 3 27 8 52 10 55 2 4 6 24 9 45 3 22 8 45 10 52 4 11 -100 156 -197 277 -5
6 -54 69 -109 140 -55 72 -106 138 -114 147 -7 9 -22 29 -32 45 -10 15 -23 33
-29 38 -9 8 -57 69 -86 110 -4 6 -20 26 -36 45 -16 19 -66 84 -111 143 -45 60
-100 132 -123 160 -56 73 -77 99 -160 207 -40 53 -85 111 -100 130 -15 19 -86
112 -158 205 -71 94 -133 175 -137 180 -5 6 -40 51 -78 100 -38 50 -72 92 -75
95 -3 3 -25 32 -50 65 -25 33 -47 62 -50 65 -3 3 -34 43 -70 90 -35 47 -68 90
-72 95 -30 38 -96 125 -113 147 -32 42 -164 212 -390 504 -38 50 -80 104 -92
120 -25 33 -202 263 -239 309 -38 50 -173 224 -243 316 -70 91 -195 252 -467
603 -93 120 -187 242 -209 271 -22 29 -53 70 -70 91 -16 22 -75 97 -130 169
-55 71 -104 135 -110 141 -5 6 -28 36 -50 67 -22 31 -43 56 -46 57 -3 0 -57
-80 -119 -177z"/>
</g>
</svg>
